<?xml version="1.0" standalone="no"?>
<!DOCTYPE svg PUBLIC "-//W3C//DTD SVG 20010904//EN"
 "http://www.w3.org/TR/2001/REC-SVG-20010904/DTD/svg10.dtd">
<svg version="1.0" xmlns="http://www.w3.org/2000/svg"
 width="740.000000pt" height="740.000000pt" viewBox="0 0 740.000000 740.000000"
 preserveAspectRatio="xMidYMid meet">
<metadata>
Created by potrace 1.16, written by Peter Selinger 2001-2019
</metadata>
<g transform="translate(0.000000,740.000000) scale(0.100000,-0.100000)"
fill="#000000" stroke="none">
<path d="M0 3700 l0 -3700 3700 0 3700 0 0 3700 0 3700 -3700 0 -3700 0 0
-3700z m3437 2046 c282 -62 481 -228 538 -451 30 -118 14 -264 -41 -365 -60
-111 -206 -216 -354 -256 -36 -10 -67 -19 -69 -21 -5 -4 64 -84 244 -283 203
-226 255 -286 255 -299 0 -26 -586 -625 -934 -954 -252 -239 -123 -95 294 326
390 394 410 416 410 451 0 20 -9 54 -19 74 -11 21 -108 139 -216 262 -108 124
-223 264 -257 311 l-61 86 -76 7 c-42 3 -118 15 -170 26 -52 11 -98 20 -104
20 -16 0 -2 -704 15 -767 30 -105 90 -150 231 -174 57 -10 77 -17 77 -28 0
-14 -51 -16 -465 -16 -422 0 -465 1 -465 16 0 12 13 18 49 23 175 23 240 84
262 244 6 49 9 338 7 797 -3 671 -5 724 -22 772 -34 93 -110 144 -241 159 -42
5 -55 11 -55 23 0 15 28 17 293 17 160 0 339 5 397 11 139 15 386 9 477 -11z
m1297 -1588 c-22 -24 -78 -83 -126 -133 -144 -152 -213 -227 -216 -236 -2 -5
10 -9 26 -9 17 0 132 -20 255 -45 124 -25 250 -45 281 -45 l56 0 0 -43 c0 -34
16 -365 23 -476 1 -16 -4 -25 -16 -27 -13 -2 -27 16 -54 69 -150 299 -386 477
-631 477 -44 0 -46 -1 -221 -172 -105 -102 -177 -180 -179 -194 -5 -36 38
-113 94 -168 73 -71 165 -124 372 -212 253 -108 373 -167 451 -218 97 -65 192
-170 234 -258 63 -131 72 -109 -124 -303 -94 -93 -164 -158 -154 -143 25 41
45 126 45 199 0 57 -4 72 -28 105 -79 108 -235 204 -554 339 -325 138 -500
268 -562 419 l-16 39 97 105 c183 198 528 545 753 759 217 206 278 259 194
171z m-1070 -1811 c83 -148 165 -256 276 -367 116 -116 181 -163 287 -205 73
-30 185 -48 241 -40 24 4 42 2 42 -3 0 -5 -25 -31 -56 -58 l-56 -48 -87 13
c-47 7 -156 28 -242 47 -172 38 -226 41 -289 19 -24 -8 -44 -14 -45 -13 -1 2
-12 62 -25 133 -12 72 -44 227 -71 345 -47 213 -48 229 -14 230 6 0 23 -24 39
-53z"/>
<path d="M2948 5656 c-32 -7 -60 -14 -62 -17 -2 -2 -8 -192 -12 -421 l-7 -418
39 -16 c115 -48 344 -55 475 -15 84 26 176 86 212 138 89 129 109 355 43 498
-50 110 -173 210 -305 249 -66 19 -297 21 -383 2z"/>
</g>
</svg>
